<?xml version="1.0" encoding="iso-8859-1"?>
<!-- Generator: Adobe Illustrator 19.0.0, SVG Export Plug-In . SVG Version: 6.00 Build 0)  -->
<svg version="1.1" id="Layer_1" xmlns="http://www.w3.org/2000/svg" xmlns:xlink="http://www.w3.org/1999/xlink" x="0px" y="0px"
	 viewBox="0 0 512.001 512.001" style="enable-background:new 0 0 512.001 512.001;" xml:space="preserve">
<path style="fill:#E1F4F2;" d="M138.816,313.028c-36.744,0-66.634,29.802-66.634,66.434v113.267c0,6.327,5.144,11.433,11.489,11.433
	h344.66c6.345,0,11.489-5.106,11.489-11.433V379.462c0-36.632-29.891-66.434-66.634-66.434H138.816z"/>
<path style="opacity:0.1;enable-background:new    ;" d="M104.656,492.73V379.463c0-36.632,29.89-66.434,66.634-66.434h-32.475
	c-36.744,0-66.634,29.802-66.634,66.434V492.73c0,6.327,5.144,11.433,11.489,11.433h32.475
	C109.8,504.163,104.656,499.057,104.656,492.73z"/>
<rect x="140.653" y="313.031" style="fill:#58A35D;" width="34.293" height="88.148"/>
<rect x="140.653" y="313.031" style="opacity:0.1;enable-background:new    ;" width="10.861" height="88.148"/>
<rect x="337.052" y="313.031" style="fill:#58A35D;" width="34.294" height="88.148"/>
<path style="fill:#407C46;" d="M393.173,504.163v-87.408c0-8.611-6.979-15.591-15.588-15.591H134.414
	c-8.609,0-15.588,6.981-15.588,15.591v87.408H393.173z"/>
<path style="opacity:0.1;enable-background:new    ;" d="M167.097,401.165h-32.683c-8.609,0-15.588,6.981-15.588,15.591v87.408
	h32.683v-87.408C151.51,408.144,158.488,401.165,167.097,401.165z"/>
<g>
	<circle style="fill:#736357;" cx="159.357" cy="438.408" r="13.509"/>
	<circle style="fill:#736357;" cx="353.687" cy="438.408" r="13.509"/>
	<path style="fill:#736357;" d="M303.16,504.163c-3.66-22.755-23.378-40.14-47.16-40.14s-43.499,17.384-47.16,40.14H303.16z"/>
</g>
<path style="fill:#E1F4F2;" d="M328.427,295.411c0-12.005-9.729-21.736-21.729-21.736h-50.423h-0.551h-50.424
	c-12,0-21.728,9.731-21.728,21.736v32.069l23.245,23.25c3.492,3.494,9.155,3.494,12.648,0l36.533-36.541l36.533,36.541
	c3.493,3.494,9.156,3.494,12.65,0l23.389-23.394L328.427,295.411z"/>
<g>
	<ellipse style="fill:#FFE7CC;" cx="158.239" cy="195.72" rx="33.877" ry="33.771"/>
	<ellipse style="fill:#FFE7CC;" cx="353.76" cy="195.72" rx="33.877" ry="33.771"/>
	<path style="fill:#FFE7CC;" d="M365.412,206.052c0,52.522-54.487,95.098-107.168,95.098h-4.49
		c-52.68,0-107.169-42.578-107.169-95.098V141.16c0-52.522,42.705-95.098,95.386-95.098h28.057c52.68,0,95.384,42.576,95.384,95.098
		v64.891H365.412z"/>
</g>
<path style="opacity:0.1;enable-background:new    ;" d="M179.28,206.052V141.16c0-51.749,41.457-93.841,93.066-95.069
	c-0.77-0.019-1.542-0.029-2.319-0.029h-28.057c-52.681,0-95.386,42.576-95.386,95.098v64.891c0,52.522,54.488,95.098,107.169,95.098
	h4.49c4.7,0,9.413-0.345,14.102-1C224.48,293.468,179.28,253.887,179.28,206.052z"/>
<g>
	<path style="fill:#736357;" d="M330.615,132.194c0,23.335,14.403,43.293,34.797,51.499V141.16c0-18.922-5.543-36.552-15.098-51.366
		C338.271,99.976,330.615,115.187,330.615,132.194z"/>
	<path style="fill:#736357;" d="M181.383,132.194c0-17.007-7.654-32.218-19.698-42.4c-9.556,14.815-15.099,32.444-15.099,51.366
		v42.534C166.98,175.487,181.383,155.529,181.383,132.194z"/>
</g>
<path style="fill:#58A35D;" d="M351.715,105.528v-63.5c0-18.883-15.305-34.192-34.184-34.192H194.467
	c-18.88,0-34.186,15.308-34.186,34.192v63.5H351.715z"/>
<path style="opacity:0.1;enable-background:new    ;" d="M227.275,7.837h-32.807c-18.88,0-34.186,15.308-34.186,34.192v63.5h32.808
	v-63.5C193.089,23.144,208.394,7.837,227.275,7.837z"/>
<path style="fill:#407C46;" d="M147.488,123.518c-2.941,0-5.73-1.308-7.612-3.57c-1.882-2.262-2.659-5.243-2.123-8.137l9.901-53.479
	c0.869-4.695,4.962-8.1,9.735-8.1h89.112c3.595,0,6.909,1.95,8.655,5.094l29.703,53.479c1.705,3.068,1.66,6.808-0.12,9.832
	c-1.777,3.024-5.026,4.881-8.535,4.881C276.205,123.518,147.488,123.518,147.488,123.518z"/>
<path style="opacity:0.1;enable-background:new    ;" d="M172.462,119.948c-1.882-2.262-2.659-5.243-2.123-8.137l9.901-53.479
	c0.869-4.695,4.962-8.1,9.735-8.1h-32.586c-4.773,0-8.866,3.405-9.735,8.1l-9.901,53.479c-0.536,2.894,0.241,5.875,2.123,8.137
	c1.882,2.262,4.671,3.57,7.612,3.57h32.586C177.133,123.518,174.344,122.211,172.462,119.948z"/>
<path style="fill:#407C46;" d="M365.318,123.518c2.94,0,5.05-1.308,6.932-3.57c1.882-2.262,2.514-5.243,1.981-8.137l-19.803-53.479
	c-0.871-4.695-4.139-8.1-8.911-8.1h-39.606c-3.597,0-6.909,1.95-8.655,5.094l-29.704,53.479c-1.705,3.068-1.658,6.808,0.121,9.832
	c1.778,3.024,5.026,4.881,8.533,4.881C276.206,123.518,365.318,123.518,365.318,123.518z"/>
<path d="M159.355,417.063c-11.771,0-21.346,9.576-21.346,21.349c0,11.773,9.575,21.349,21.346,21.349
	c11.771,0,21.346-9.578,21.346-21.349C180.701,426.64,171.124,417.063,159.355,417.063z M159.355,444.088
	c-3.128,0-5.673-2.546-5.673-5.676c0-3.129,2.544-5.676,5.673-5.676c3.128,0,5.673,2.546,5.673,5.676
	C165.027,441.541,162.482,444.088,159.355,444.088z"/>
<path d="M353.684,417.063c-11.771,0-21.347,9.576-21.347,21.349c0,11.773,9.576,21.349,21.347,21.349
	c11.771,0,21.346-9.578,21.346-21.349C375.03,426.64,365.455,417.063,353.684,417.063z M353.684,444.088
	c-3.128,0-5.674-2.546-5.674-5.676c0-3.129,2.545-5.676,5.674-5.676c3.127,0,5.673,2.546,5.673,5.676
	C359.357,441.541,356.811,444.088,353.684,444.088z"/>
<path d="M439.818,444.604c4.329,0,7.837-3.509,7.837-7.837v-57.305c0-40.953-33.407-74.27-74.471-74.27h-36.878l-0.044-9.78
	c0-4.763-1.134-9.263-3.142-13.25c1.197-0.946,2.38-1.908,3.543-2.897c15.089-12.851,25.834-28.121,31.626-44.553
	c15.855-5.896,27.181-21.144,27.181-38.99c0-15.923-9.016-29.777-22.222-36.768v-17.789c0-3.901-0.229-7.748-0.655-11.537
	c2.075-1.067,3.978-2.615,5.68-4.663c3.303-3.971,4.639-9.281,3.663-14.57c-0.082-0.443-21.284-58.436-22.386-60.199V42.03
	C359.552,18.854,340.702,0,317.531,0H194.467c-23.172,0-42.023,18.854-42.023,42.029v1.079c-6.305,1.831-11.251,7.071-12.497,13.798
	l-3.128,16.9c-0.788,4.256,2.024,8.345,6.279,9.132c4.252,0.786,8.345-2.023,9.132-6.279l3.128-16.899
	c0.182-0.98,1.035-1.691,2.03-1.691h89.112c0.749,0,1.44,0.406,1.805,1.063l18.935,34.092L260.7,105
	c-1.829,3.29-2.518,7.042-2.095,10.684H147.488c-1.271,0-2.261-1.194-2.03-2.443l2.517-13.59c0.788-4.256-2.023-8.345-6.279-9.132
	c-4.255-0.79-8.346,2.022-9.132,6.279l-2.517,13.591c-0.962,5.199,0.424,10.512,3.804,14.574c1.56,1.876,3.467,3.361,5.579,4.439
	c-0.444,3.861-0.68,7.784-0.68,11.762v17.79c-13.204,6.99-22.221,20.845-22.221,36.768c0,17.847,11.325,33.094,27.18,38.99
	c5.791,16.432,16.536,31.702,31.626,44.553c1.163,0.991,2.347,1.953,3.544,2.899c-2.007,3.987-3.141,8.489-3.141,13.249v9.78
	h-36.921c-41.063,0-74.471,33.318-74.471,74.27v113.267c0,10.627,8.67,19.27,19.325,19.27h344.66
	c10.656,0,19.325-8.644,19.325-19.27v-22.527c0-4.328-3.508-7.837-7.837-7.837c-4.329,0-7.837,3.509-7.837,7.837v22.526
	c0,1.983-1.638,3.597-3.652,3.597h-27.32v-79.571c0-12.379-9.651-22.541-21.823-23.367v-72.22
	c29.611,3.006,52.793,28.003,52.793,58.294v57.305C431.981,441.095,435.489,444.604,439.818,444.604z M373.248,206.052v-27.485
	c4.066,4.575,6.548,10.575,6.548,17.152c0,6.744-2.605,12.886-6.858,17.501C373.141,210.842,373.248,208.451,373.248,206.052z
	 M132.202,195.719c0-6.577,2.482-12.577,6.547-17.152v27.485c0,2.399,0.108,4.789,0.308,7.168
	C134.808,208.603,132.202,202.462,132.202,195.719z M344.893,320.865h18.62v72.463h-18.62V320.865z M357.575,170.398
	c-11.893-8.844-19.124-22.845-19.124-38.204c0-0.281,0.016-0.559,0.019-0.839h18.535c0.365,3.22,0.568,6.489,0.568,9.805v29.237
	H357.575z M366.574,113.703c0.065,2.206-1.556,1.979-2.988,1.979c-2.079,0-84.145,0.228-87.379,0
	c-1.509-0.107-2.598-1.647-1.806-3.071l29.704-53.48c0.365-0.654,1.055-1.062,1.805-1.062h37.555c1.235,0,2.342,0.764,2.778,1.919
	L366.574,113.703z M262.008,51.522c-3.125-5.629-9.068-9.126-15.506-9.126h-78.383v-0.368c0-14.532,11.82-26.355,26.349-26.355
	H317.53c14.527,0,26.347,11.823,26.347,26.355v0.368h-37.968c-6.439,0-12.381,3.497-15.506,9.125l-14.199,25.562L262.008,51.522z
	 M154.423,141.16c0-3.317,0.205-6.584,0.568-9.805h18.535c0.005,0.28,0.02,0.558,0.02,0.839c0,15.359-7.231,29.361-19.124,38.205
	V141.16z M154.423,206.052v-17.314c21.302-10.715,34.797-32.359,34.797-56.544c0-0.28-0.011-0.559-0.016-0.839h133.589
	c-0.004,0.28-0.016,0.559-0.016,0.839c0,24.184,13.495,45.827,34.797,56.543v17.314c0,22.451-11.035,44.213-31.073,61.279
	c-19.389,16.513-44.267,25.983-68.257,25.983h-4.49c-23.99,0-48.869-9.47-68.258-25.983
	C165.459,250.265,154.423,228.502,154.423,206.052z M201.276,356.269c3.169,3.171,7.383,4.917,11.867,4.917
	c4.483,0,8.697-1.746,11.867-4.916l30.99-30.997l30.991,30.997c3.169,3.17,7.383,4.916,11.866,4.916s8.697-1.746,11.866-4.916
	l18.497-18.502v55.558H182.779v-55.558L201.276,356.269z M191.41,324.235v-28.823c0-1.443,0.238-2.827,0.648-4.137
	c14.435,8.686,30.448,14.421,46.601,16.655l6.258,6.26l-30.992,30.999c-0.426,0.425-1.139,0.428-1.566,0L191.41,324.235z
	 M261.812,308.92c19.971-0.667,40.257-6.893,58.123-17.643c0.414,1.319,0.653,2.715,0.653,4.17l0.13,28.658l-21.08,21.085
	c-0.425,0.425-1.139,0.427-1.565,0L261.812,308.92z M148.486,320.865h18.619v72.463h-18.619V320.865z M110.99,416.755v79.571H83.67
	c-2.014,0-3.652-1.613-3.652-3.597V379.463c0-30.291,23.182-55.288,52.795-58.294v72.22
	C120.641,394.215,110.99,404.375,110.99,416.755z M219.149,496.327c6.069-14.599,20.363-24.466,36.85-24.466
	s30.783,9.867,36.85,24.466H219.149z M385.336,416.755v79.571h-75.918c-6.76-23.615-28.249-40.14-53.418-40.14
	c-25.168,0-46.657,16.525-53.418,40.14h-75.919v-79.571c0-4.276,3.477-7.754,7.751-7.754h243.172
	C381.858,409.001,385.336,412.48,385.336,416.755z"/>
<path d="M258.078,359.975c4.329,0,7.837-3.509,7.837-7.837v-1.732c0-4.328-3.508-7.837-7.837-7.837
	c-4.328,0-7.837,3.509-7.837,7.837v1.732C250.241,356.466,253.75,359.975,258.078,359.975z"/>
<path d="M258.078,387.173c4.329,0,7.837-3.509,7.837-7.837v-1.732c0-4.328-3.508-7.837-7.837-7.837
	c-4.328,0-7.837,3.509-7.837,7.837v1.732C250.241,383.665,253.75,387.173,258.078,387.173z"/>
<path d="M209.99,218.564c4.328,0,7.837-3.509,7.837-7.837v-10.253c0-4.328-3.509-7.837-7.837-7.837
	c-4.328,0-7.837,3.509-7.837,7.837v10.253C202.154,215.056,205.663,218.564,209.99,218.564z"/>
<path d="M302.009,218.564c4.329,0,7.837-3.509,7.837-7.837v-10.253c0-4.328-3.508-7.837-7.837-7.837s-7.837,3.509-7.837,7.837
	v10.253C294.173,215.056,297.681,218.564,302.009,218.564z"/>
<path d="M255.999,266.428L255.999,266.428c8.824,0,17.123-3.439,23.362-9.681c3.059-3.062,3.058-8.023-0.003-11.082
	c-3.062-3.061-8.024-3.058-11.082,0.002c-3.28,3.281-7.639,5.088-12.276,5.088c-4.637,0-8.998-1.808-12.278-5.088
	c-3.059-3.062-8.022-3.063-11.082-0.002c-3.062,3.059-3.062,8.022-0.002,11.082C238.878,262.989,247.174,266.428,255.999,266.428z"
	/>
<g>
</g>
<g>
</g>
<g>
</g>
<g>
</g>
<g>
</g>
<g>
</g>
<g>
</g>
<g>
</g>
<g>
</g>
<g>
</g>
<g>
</g>
<g>
</g>
<g>
</g>
<g>
</g>
<g>
</g>
</svg>
