<svg width="138.145px" height="138.145px" viewBox="-2.88 0 138.145 138.145" xmlns="http://www.w3.org/2000/svg">
  <g id="barista" transform="translate(-108.475 475.755)">
    <path id="path16" d="M192.561-424.356l-8.229-11.332-23.153-8.5H147.232l-9.579,19.157L135.36-411,146.65-397.51l15.211,14.976h13.972l14.029-9.444,8.364-12.141-5.665-20.237" fill="#ebbfb6"/>
    <path id="path18" d="M180.554-379.248,162.3-378.8H145.748L130.1-373.043,113.369-361.8l-1.888,21.045,29.228-.811.364-10.7,2.428-2.968,39.3-1.348L184.96-378.8l-4.405-.449" fill="#fbcb3a"/>
    <path id="path20" d="M206.638-455.068l-12.593-12.588-21.585-5.22-17.449,1.8-13.849,7.736L130.187-452.37l-4.136,14.029,3.237,28.425,4.5.9,7.643-21.544,8.365-13.713h9.173l19.967,2.159L194.4-424.308l4.5,28.781s9.895-15.111,9.895-15.649,2.336-25.005,2.336-25.005l-4.493-18.887" fill="#f25547"/>
    <path id="path22" d="M152.5-387.526l-5.847,8.005,13.4,9.443,7.463-9.443L152.5-387.526" fill="#f8fafc"/>
    <path id="path24" d="M182.177-385.548l-12.141,4.411,7.284,11.777L182.8-374.3l-.628-11.244" fill="#f8fafc"/>
    <path id="path26" d="M182.8-340.759H139.546v-14.748H182.8v14.748" fill="#ed395e"/>
    <path id="path28" d="M222.463-340.759h-37.5v-44.789h37.5v44.789" fill="#97d552"/>
    <path id="path30" d="M199.016-369.035a12.643,12.643,0,0,0,2,7.129,7.809,7.809,0,0,1,.665,6.595,6.155,6.155,0,0,1-1.952-1.633,10.607,10.607,0,0,1-2.124-6.568,11.1,11.1,0,0,1,1.412-5.523Zm8.157-1.037a10.576,10.576,0,0,1,2.121,6.56,11.063,11.063,0,0,1-1.431,5.557,12.612,12.612,0,0,0-2-7.041,7.846,7.846,0,0,1-.628-6.7,6.161,6.161,0,0,1,1.935,1.627Zm-3.723,20.953c6.408,0,11.6-6.443,11.6-14.393s-5.195-14.393-11.6-14.393-11.6,6.445-11.6,14.393,5.193,14.393,11.6,14.393" fill="#100f0d"/>
    <path id="path32" d="M235.107-352h-8.635v-23.019h8.635Zm-14.389,8.635H186.182v-40.287h34.536Zm-77.706,0v-8.685a24.883,24.883,0,0,1,4.22-1.2c5.143-1.072,12.365-1.615,21.463-1.615,4.333,0,8.251.124,11.729.369v11.131H143.012Zm-5.759-11.509v11.509H114.23v-13.159a10.038,10.038,0,0,1,6.833-9.491l.32-.091a55.222,55.222,0,0,0,10.746-4.015c.923-.439,1.72-.827,2.5-1.121a83.347,83.347,0,0,0,8.385-3.659v16.771c-5.261,1.551-5.759,3.255-5.759,3.255Zm1.192-60.738a60.307,60.307,0,0,1,5.616-17.2,31.719,31.719,0,0,1,6.105-8.449,68.332,68.332,0,0,1,8.532-.573c11.54,0,20.464,3.495,26.519,10.384,6.9,7.845,8.924,18.715,9.393,26.605a52.286,52.286,0,0,1-6.388,9.037,45.583,45.583,0,0,1-10.708,9.109c-3.3,1.964-6.433,3.044-8.82,3.044s-5.519-1.08-8.819-3.044a45.561,45.561,0,0,1-10.709-9.109,48.6,48.6,0,0,1-10.721-19.808ZM132-411.5a82.254,82.254,0,0,1-3.377-23.964c0-8.237,3.363-15.581,10-21.843a42.972,42.972,0,0,1,6.6-5.084l1,16.935C142.97-442.42,134.58-432.707,132-411.5Zm21.728-55.781c2.711-1.244,7.589-2.719,15.443-2.719a85.185,85.185,0,0,1,13.457,1.18,25.349,25.349,0,0,1,14.793,8.617,44.225,44.225,0,0,1,9.175,17.58,53.583,53.583,0,0,1,.88,25.169,39.585,39.585,0,0,1-6.976,15.641c-.025-1.991-.135-4.259-.4-6.7-1.159-10.945-4.805-20.177-10.535-26.712-7.2-8.2-17.585-12.36-30.865-12.36-2.183,0-4.464.109-6.821.336l-1.083-18.305a15.176,15.176,0,0,1,2.929-1.724Zm26.7,91.792-2.635,1.885-3.9-5.156a30.858,30.858,0,0,0,6.531-2.977Zm-29.832-4.56a11.292,11.292,0,0,0,2.071-2.805c.1-.2.172-.367.215-.463l.4-.879a34.893,34.893,0,0,0,10.224,5.436l-3.9,5.156Zm10.224,14.393,7.879-10.44,7.88,10.44,3.849-2.759v8.145c-3.331-.228-7.209-.359-11.729-.359a130.272,130.272,0,0,0-19.928,1.244v-14.9Zm29.3-23.763a58.253,58.253,0,0,0,4.253-4.788l-.627,4.788Zm47.867,8.635H226.473v-8.635H196.018l3.123-2.639c6.995-5.912,11.823-14.275,13.96-24.183a59.491,59.491,0,0,0-.963-27.925,50.063,50.063,0,0,0-10.42-19.865A31.033,31.033,0,0,0,183.542-474.5a90.727,90.727,0,0,0-14.376-1.256c-12.943,0-19.417,3.605-22.229,5.9l-.271.12a46.351,46.351,0,0,0-11.851,8.107c-7.82,7.311-11.951,16.363-11.951,26.172,0,23.959,8.465,37.316,8.828,37.872l5.216,8.064.075-9.6c.013-1.425.051-2.795.109-4.131a58.5,58.5,0,0,0,10.545,14.211l-.027,3.411c-.025.052-.045.111-.071.161-.751,1.461-3.684,4.561-14.962,8.852-3.179,1.215-5.595,3.052-12.741,4.976l-.489.139a15.788,15.788,0,0,0-10.873,14.983v18.917H223.594a2.879,2.879,0,0,0,2.879-2.875v-5.76h11.513a2.874,2.874,0,0,0,2.876-2.875v-28.787a2.876,2.876,0,0,0-2.876-2.875" fill="#100f0d"/>
  </g>
</svg>
