<?xml version="1.0" encoding="iso-8859-1"?>
<!-- Generator: Adobe Illustrator 18.0.0, SVG Export Plug-In . SVG Version: 6.00 Build 0)  -->
<!DOCTYPE svg PUBLIC "-//W3C//DTD SVG 1.1//EN" "http://www.w3.org/Graphics/SVG/1.1/DTD/svg11.dtd">
<svg version="1.1" id="Capa_1" xmlns="http://www.w3.org/2000/svg" xmlns:xlink="http://www.w3.org/1999/xlink" x="0px" y="0px"
	 viewBox="0 0 48.437 48.437" style="enable-background:new 0 0 48.437 48.437;" xml:space="preserve">
<g>
	<path d="M15.243,23.121c-0.95-2.023-1.298-4.209-1.64-6.35c-0.299-1.877-0.608-3.816-1.329-5.588
		C10.282,6.296,5.47,3.011,0.299,3.008L0.268,3.007C0.21,3.218,0.167,3.437,0.152,3.67L0.047,5.391
		c-0.545,8.87,3.697,16.728,10.963,20.748C12.34,24.978,13.761,23.981,15.243,23.121z"/>
	<path d="M14.126,10.429c0.809,1.984,1.136,4.04,1.453,6.027c0.322,2.02,0.633,3.97,1.433,5.718c3.4-1.635,7.099-2.502,10.932-2.502
		c0.011,0,0.021,0.001,0.032,0.001C26.573,8.691,17.678,0.739,6.19,0.739c-0.509,0-1.022,0.016-1.541,0.048L2.929,0.893
		C2.576,0.914,2.251,0.994,1.95,1.113C7.258,1.727,12.039,5.31,14.126,10.429z"/>
	<path d="M28.755,33.954c4.965,4.965,13.045,4.965,18.01,0l1.278-1.214c-0.21-0.471-0.482-0.927-0.85-1.343l-1.143-1.29
		c-4.81-5.438-11.239-8.435-18.105-8.435s-13.297,2.996-18.106,8.435l-1.142,1.29c-0.721,0.815-1.12,1.767-1.234,2.74l0.29-0.226
		C13.559,28.151,22.968,28.166,28.755,33.954z"/>
	<path d="M48.16,35.386c-2.767,2.768-6.467,4.302-10.4,4.302s-7.634-1.534-10.419-4.319c-2.407-2.407-5.643-3.733-9.109-3.733
		s-6.702,1.326-9.109,3.733L9.03,35.449l-1.275,0.996c0.214,0.539,0.525,1.056,0.941,1.527l1.142,1.291
		c4.81,5.438,11.24,8.434,18.106,8.434s13.296-2.995,18.105-8.433l1.143-1.291c0.748-0.846,1.15-1.84,1.244-2.85L48.16,35.386z"/>
</g>
<g>
</g>
<g>
</g>
<g>
</g>
<g>
</g>
<g>
</g>
<g>
</g>
<g>
</g>
<g>
</g>
<g>
</g>
<g>
</g>
<g>
</g>
<g>
</g>
<g>
</g>
<g>
</g>
<g>
</g>
</svg>
