<?xml version="1.0" encoding="iso-8859-1"?>
<!-- Generator: Adobe Illustrator 19.0.0, SVG Export Plug-In . SVG Version: 6.00 Build 0)  -->
<svg version="1.1" id="Layer_1" xmlns="http://www.w3.org/2000/svg" xmlns:xlink="http://www.w3.org/1999/xlink" x="0px" y="0px"
	 viewBox="0 0 512 512" style="enable-background:new 0 0 512 512;" xml:space="preserve">
<g>
	<path style="fill:#B3B3B3;" d="M162.091,12.249H21.445v410.029H155.08V89.722h335.47c0-21.399-8.672-40.764-22.685-54.777
		c-14.025-14.025-33.378-22.697-54.777-22.697H242.933"/>
	<path style="fill:#B3B3B3;" d="M87.993,375.279c-16.021,0-29.017-12.984-29.017-29.005s12.996-29.017,29.017-29.017
		s29.005,12.996,29.005,29.017C116.998,362.295,104.014,375.279,87.993,375.279z"/>
</g>
<path d="M87.993,387.528c-22.753,0-41.265-18.505-41.265-41.254c0-22.755,18.512-41.266,41.265-41.266
	c22.747,0,41.255,18.512,41.255,41.266C129.248,369.021,110.74,387.528,87.993,387.528z M87.993,329.505
	c-9.247,0-16.767,7.523-16.767,16.769c0,9.239,7.522,16.756,16.767,16.756c9.24,0,16.758-7.517,16.758-16.756
	C104.751,337.027,97.233,329.505,87.993,329.505z"/>
<path style="fill:#B3B3B3;" d="M87.993,277.962c-16.021,0-29.017-12.996-29.017-29.017s12.996-29.005,29.017-29.005
	s29.005,12.984,29.005,29.005S104.014,277.962,87.993,277.962z"/>
<path d="M87.993,290.211c-22.753,0-41.265-18.512-41.265-41.265c0-22.747,18.512-41.254,41.265-41.254
	c22.747,0,41.255,18.505,41.255,41.254C129.248,271.698,110.74,290.211,87.993,290.211z M87.993,232.19
	c-9.247,0-16.767,7.517-16.767,16.756c0,9.247,7.522,16.767,16.767,16.767c9.24,0,16.758-7.522,16.758-16.767
	C104.751,239.705,97.233,232.19,87.993,232.19z"/>
<path style="fill:#B3B3B3;" d="M87.993,180.645c-16.021,0-29.017-12.996-29.017-29.017s12.996-29.005,29.017-29.005
	s29.005,12.984,29.005,29.005S104.014,180.645,87.993,180.645z"/>
<path d="M87.993,192.894c-22.753,0-41.265-18.512-41.265-41.266c0-22.747,18.512-41.254,41.265-41.254
	c22.747,0,41.255,18.505,41.255,41.254C129.248,174.383,110.74,192.894,87.993,192.894z M87.993,134.872
	c-9.247,0-16.767,7.517-16.767,16.756c0,9.247,7.522,16.769,16.767,16.769c9.24,0,16.758-7.523,16.758-16.769
	C104.751,142.389,97.233,134.872,87.993,134.872z"/>
<rect x="21.445" y="422.277" style="fill:#666666;" width="469.105" height="77.474"/>
<polygon style="fill:#CCC2B8;" points="417.669,212.235 417.669,365.419 246.394,365.419 246.394,256.404 209.648,212.235 "/>
<rect x="246.397" y="365.419" style="fill:#6E5B3F;" width="171.275" height="56.859"/>
<g>
	<rect x="298.026" y="89.722" style="fill:#CCC2B8;" width="68.03" height="71.055"/>
	<rect x="313.19" y="160.778" style="fill:#CCC2B8;" width="37.702" height="50.514"/>
</g>
<path d="M198.832,24.498h4.185c6.764,0,12.249-5.485,12.249-12.249S209.782,0,203.018,0h-4.185c-6.764,0-12.249,5.485-12.249,12.249
	S192.069,24.498,198.832,24.498z"/>
<path d="M462.937,377.671c21.982,0,39.866-17.883,39.866-39.865v-46.767c0-21.982-17.884-39.865-39.866-39.865h-33.019v-38.939
	c0-6.764-5.485-12.249-12.249-12.249h-54.533v-26.96h2.916c6.764,0,12.249-5.485,12.249-12.249V140.56h17.908
	c6.764,0,12.249-5.485,12.249-12.249c0-6.764-5.485-12.249-12.249-12.249h-17.908v-14.091H490.55
	c6.764,0,12.249-5.485,12.249-12.249c0-23.967-9.33-46.496-26.272-63.437C459.578,9.335,437.048,0,413.088,0H242.933
	c-6.764,0-12.249,5.485-12.249,12.249s5.485,12.249,12.249,12.249h170.155c17.417,0,33.793,6.787,46.116,19.111
	c9.376,9.376,15.546,21.108,17.956,33.865H366.053h-68.03H155.08c-6.764,0-12.249,5.485-12.249,12.249v320.306H33.694V24.498
	h128.397c6.764,0,12.249-5.485,12.249-12.249S168.855,0,162.091,0H21.445C14.681,0,9.196,5.485,9.196,12.249v410.029v77.474
	c0,6.764,5.485,12.249,12.249,12.249H490.55c6.764,0,12.249-5.485,12.249-12.249v-77.474c0-6.764-5.485-12.249-12.249-12.249
	h-60.632v-32.358H462.937z M462.937,275.673c8.474,0,15.369,6.894,15.369,15.367v46.767c0,8.474-6.895,15.367-15.369,15.367h-33.019
	v-77.501h33.019V275.673z M405.421,353.17H258.643v-96.766c0-2.863-1.002-5.634-2.833-7.834l-20.039-24.087h169.65V353.17z
	 M338.64,199.043h-13.203v-26.016h13.203V199.043z M353.805,101.971v26.221c0,0.04-0.006,0.078-0.006,0.119s0.006,0.078,0.006,0.119
	v20.099h-2.916h-37.701h-2.915v-46.558H353.805z M167.328,101.971h118.446v58.806c0,6.764,5.485,12.249,12.249,12.249h2.915v26.96
	h-91.29c-4.751,0-9.073,2.747-11.09,7.049c-2.017,4.302-1.365,9.381,1.673,13.034l33.914,40.765V365.42v44.61h-66.817V101.971z
	 M478.301,487.502H33.694v-52.976h121.387h91.315h171.275h60.632v52.976H478.301z M258.643,410.029v-32.361h146.777v32.361H258.643z
	"/>
<path style="fill:#DF4D60;" d="M116.998,346.274c0,16.021-12.984,29.005-29.005,29.005s-29.017-12.984-29.017-29.005
	s12.996-29.017,29.017-29.017S116.998,330.252,116.998,346.274z"/>
<path d="M87.993,387.528c-22.753,0-41.265-18.505-41.265-41.254c0-22.755,18.512-41.266,41.265-41.266
	c22.747,0,41.255,18.512,41.255,41.266C129.248,369.021,110.74,387.528,87.993,387.528z M87.993,329.505
	c-9.247,0-16.767,7.523-16.767,16.769c0,9.239,7.522,16.756,16.767,16.756c9.24,0,16.758-7.517,16.758-16.756
	C104.751,337.027,97.233,329.505,87.993,329.505z"/>
<path style="fill:#DF4D60;" d="M116.998,248.945c0,16.021-12.984,29.017-29.005,29.017s-29.017-12.996-29.017-29.017
	s12.996-29.005,29.017-29.005S116.998,232.923,116.998,248.945z"/>
<path d="M87.993,290.211c-22.753,0-41.265-18.512-41.265-41.265c0-22.747,18.512-41.254,41.265-41.254
	c22.747,0,41.255,18.505,41.255,41.254C129.248,271.698,110.74,290.211,87.993,290.211z M87.993,232.19
	c-9.247,0-16.767,7.517-16.767,16.756c0,9.247,7.522,16.767,16.767,16.767c9.24,0,16.758-7.522,16.758-16.767
	C104.751,239.705,97.233,232.19,87.993,232.19z"/>
<path style="fill:#DF4D60;" d="M116.998,151.628c0,16.021-12.984,29.017-29.005,29.017s-29.017-12.996-29.017-29.017
	s12.996-29.005,29.017-29.005C104.014,122.623,116.998,135.607,116.998,151.628z"/>
<path d="M87.993,192.894c-22.753,0-41.265-18.512-41.265-41.266c0-22.747,18.512-41.254,41.265-41.254
	c22.747,0,41.255,18.505,41.255,41.254C129.248,174.383,110.74,192.894,87.993,192.894z M87.993,134.872
	c-9.247,0-16.767,7.517-16.767,16.756c0,9.247,7.522,16.769,16.767,16.769c9.24,0,16.758-7.523,16.758-16.769
	C104.751,142.389,97.233,134.872,87.993,134.872z"/>
<g>
</g>
<g>
</g>
<g>
</g>
<g>
</g>
<g>
</g>
<g>
</g>
<g>
</g>
<g>
</g>
<g>
</g>
<g>
</g>
<g>
</g>
<g>
</g>
<g>
</g>
<g>
</g>
<g>
</g>
</svg>
